<?xml version="1.0" standalone="no"?><!DOCTYPE svg PUBLIC "-//W3C//DTD SVG 1.1//EN" "http://www.w3.org/Graphics/SVG/1.1/DTD/svg11.dtd"><svg t="1679062694302" class="icon" viewBox="0 0 1024 1024" version="1.1" xmlns="http://www.w3.org/2000/svg" p-id="3871" width="48" height="48" xmlns:xlink="http://www.w3.org/1999/xlink"><path d="M989.866667 913.066667l-76.8-256c-12.8-34.133333-42.666667-59.733333-81.066667-59.733334h-68.266667s0 4.266667-4.266666 4.266667c51.2-76.8 89.6-170.666667 93.866666-260.266667 0-187.733333-153.6-341.333333-341.333333-341.333333S170.666667 153.6 170.666667 341.333333c-4.266667 89.6 34.133333 183.466667 85.333333 260.266667V597.333333H192c-38.4 0-72.533333 25.6-81.066667 59.733334l-76.8 256c-4.266667 8.533333-4.266667 17.066667-4.266666 25.6 0 46.933333 38.4 85.333333 85.333333 85.333333h793.6c8.533333 0 17.066667 0 25.6-4.266667 42.666667-12.8 68.266667-59.733333 55.466667-106.666666zM512 64c153.6 0 277.333333 123.733333 277.333333 277.333333-4.266667 89.6-51.2 192-123.733333 281.6-59.733333 72.533333-132.266667 123.733333-153.6 123.733334-25.6 0-98.133333-51.2-157.866667-123.733334-76.8-89.6-123.733333-192-119.466666-281.6 0-153.6 123.733333-277.333333 277.333333-277.333333z m405.333333 896H115.2c-12.8 0-21.333333-8.533333-21.333333-21.333333v-4.266667l76.8-256c4.266667-8.533333 12.8-17.066667 21.333333-17.066667h110.933333v-4.266666c76.8 89.6 166.4 153.6 213.333334 153.6s132.266667-59.733333 204.8-153.6v4.266666h115.2c8.533333 0 17.066667 4.266667 21.333333 17.066667l76.8 256c0 8.533333-8.533333 21.333333-17.066667 25.6z" fill="#444444" p-id="3872"></path><path d="M512 469.333333c72.533333 0 128-55.466667 128-128s-55.466667-128-128-128-128 55.466667-128 128 55.466667 128 128 128z m0-192c34.133333 0 64 29.866667 64 64s-29.866667 64-64 64-64-29.866667-64-64 29.866667-64 64-64z" fill="#444444" p-id="3873"></path></svg>